# xmcd
#
# Track frame offsets: 
#        150
#        21219
#        41525
#        55850
#        70475
#        75750
#        94447
#        105317
#        127292
#        135582
#
# Disc length: 2152 seconds
#
# Revision: 0
# Processed by: cddbd v1.5.1PL0 Copyright (c) Steve Scherf et al.
# Submitted via: ExactAudioCopy v0.95a5
#
DISCID=8208660a
DTITLE=Waxwing - Nobody Can Take What Everybody Owns
DYEAR=1900
DGENRE=Slow Jam
TTITLE0=Everything's on Fire
TTITLE1=Colour
TTITLE2=Place Called Houston
TTITLE3=Records
TTITLE4=Untitled
TTITLE5=The Worst Kind of Liars
TTITLE6=G
TTITLE7=The Gift of Light
TTITLE8=Deleporte
TTITLE9=Schoolmaker
EXTD=
EXTT0=
EXTT1=
EXTT2=
EXTT3=
EXTT4=
EXTT5=
EXTT6=
EXTT7=
EXTT8=
EXTT9=
PLAYORDER=
